<?xml version="1.0" encoding="UTF-8"?>
<svg id="Layer_1" xmlns="http://www.w3.org/2000/svg" version="1.1" viewBox="0 0 514.3 220.3">
  <!-- Generator: Adobe Illustrator 29.6.0, SVG Export Plug-In . SVG Version: 2.1.1 Build 207)  -->
  <defs>
    <style>
      .st0 {
        fill: #272525;
      }
    </style>
  </defs>
  <g>
    <polygon class="st0" points="190.7 29.7 195.3 29.7 195.3 25.1 195.6 25.1 195.6 29.7 200.2 29.7 200.2 30 195.6 30 195.6 34.6 195.3 34.6 195.3 30 190.7 30 190.7 29.7"/>
    <polygon class="st0" points="20.7 29.7 25.2 29.7 25.2 25.1 25.5 25.1 25.5 29.7 30.1 29.7 30.1 30 25.5 30 25.5 34.6 25.2 34.6 25.2 30 20.7 30 20.7 29.7"/>
    <polygon class="st0" points="190.7 199.8 195.3 199.8 195.3 195.2 195.6 195.2 195.6 199.8 200.2 199.8 200.2 200.1 195.6 200.1 195.6 204.7 195.3 204.7 195.3 200.1 190.7 200.1 190.7 199.8"/>
    <polygon class="st0" points="20.7 199.8 25.2 199.8 25.2 195.2 25.5 195.2 25.5 199.8 30.1 199.8 30.1 200.1 25.5 200.1 25.5 204.7 25.2 204.7 25.2 200.1 20.7 200.1 20.7 199.8"/>
  </g>
  <g>
    <polygon class="st0" points="498.8 26 499.1 26 499.1 21.5 503.6 21.5 503.6 21.2 499.1 21.2 499.1 16.6 498.8 16.6 498.8 21.2 494.2 21.2 494.2 21.5 498.8 21.5 498.8 26"/>
    <polygon class="st0" points="328.7 26 329 26 329 21.5 333.6 21.5 333.6 21.2 329 21.2 329 16.6 328.7 16.6 328.7 21.2 324.1 21.2 324.1 21.5 328.7 21.5 328.7 26"/>
    <polygon class="st0" points="499.1 203.8 498.8 203.8 498.8 208.3 494.2 208.3 494.2 208.6 498.8 208.6 498.8 213.2 499.1 213.2 499.1 208.6 503.6 208.6 503.6 208.3 499.1 208.3 499.1 203.8"/>
    <polygon class="st0" points="329 203.8 328.7 203.8 328.7 208.3 324.1 208.3 324.1 208.6 328.7 208.6 328.7 213.2 329 213.2 329 208.6 333.6 208.6 333.6 208.3 329 208.3 329 203.8"/>
  </g>
  <path class="st0" d="M512.2,148.1h-15.5c-.2,0-.4,0-.6.1l-28.4,9.1-17.8-38.7,10.1-12.3s0,0,0-.1c0,0,0-.1.1-.2,0,0,0-.1,0-.2,0,0,0-.1,0-.2,0,0,0-.1,0-.2,0,0,0-.1,0-.2,0,0,0-.2,0-.2,0,0,0,0,0-.1l-1.4-41.5.7-.5,36.3,12.2c.2,0,.4.1.7.1h15.5c1.2,0,2.1-1,2.1-2.1s-1-2.1-2.1-2.1h-15.2l-35.5-11.9.9-26.5V2.1C462.3,1,461.3,0,460.2,0s-2.1,1-2.1,2.1v30.2s-.9,27-.9,27l-2.3,1.8-42,12-1.4-3.2c-.3-.7-1-1.2-1.8-1.3l-39.8-2.6-.7-34.2V2.1C369.1,1,368.1,0,367,0s-2.1,1-2.1,2.1v29.8l.7,35.3-6.1,6.2c-.5.5-.7,1.1-.6,1.8l5.8,42-34,1.1h-15.5c-1.2,0-2.1,1-2.1,2.1s1,2.1,2.1,2.1h15.6s35.6-1.2,35.6-1.2l3.2,2.6,6.1,18.4-15.3,19.1c-.5.6-.6,1.4-.3,2.1l12.6,34.7v20c0,1.2,1,2.1,2.1,2.1s2.1-1,2.1-2.1v-20.4c0-.2,0-.5-.1-.7l-12.3-33.9,14.3-17.8,21.6,9.2,11.7,17.1c.5.7,1.3,1.1,2.2.9l50.3-10.2.8,35.3v20.4c0,1.2,1,2.1,2.1,2.1s2.1-1,2.1-2.1v-20.5s-.9-36.3-.9-36.3l28.4-9.1h15.2c1.2,0,2.1-1,2.1-2.1s-1-2.1-2.1-2.1ZM368.5,70.2l39.5,2.6,1.7,3.8c.3.8,1.1,1.3,1.9,1.3s.4,0,.6,0l42.6-12.2,1.3,38.6-9.7,11.8-13.5-2.4-18.4-22.4c-.7-.9-2-1-2.9-.4l-40.3,29.2-2.3-1.9-5.8-42.5,5.3-5.4h0ZM403.2,151.7c-.2-.3-.5-.6-.9-.8l-22.7-9.7-5.9-17.7,38.8-28.1,17.6,21.5c.3.4.8.7,1.3.7l14.4,2.5,17.6,38.2-48.8,9.8-11.3-16.5Z"/>
  <path class="st0" d="M161.3,118.6c.4.3.8.4,1.2.4s1-.2,1.3-.5l3.6-3,37.7,1.2h13.5c1.2,0,2.1-1,2.1-2.1s-1-2.1-2.1-2.1h-13.5s-38.4-1.2-38.4-1.2c-.5,0-1,.2-1.4.5l-3,2.5-39.4-28.5,1.2-15.3,1.5-3.4,39.5-2.6,6.1,6.1s0,0,0,0c0,0,.1.1.2.2,0,0,0,0,.1,0,0,0,.1,0,.2.1,0,0,0,0,.1,0,0,0,.2,0,.3,0,0,0,0,0,0,0,.1,0,.3,0,.4,0s0,0,0,0,0,0,0,0c0,0,0,0,0,0,0,0,.2,0,.2,0l31.4-3.6h14.2c1.2,0,2.1-1,2.1-2.1s-1-2.1-2.1-2.1h-14.4c0,0-.2,0-.2,0l-30.5,3.5-6-6.1s0,0,0,0c0,0-.1,0-.2-.1,0,0-.1,0-.2-.1,0,0-.1,0-.2,0,0,0-.1,0-.2,0,0,0-.1,0-.2,0,0,0-.2,0-.2,0,0,0-.1,0-.2,0,0,0-.2,0-.2,0,0,0,0,0,0,0l-39.5,2.6V7.9c0-1.2-1-2.1-2.1-2.1s-2.1,1-2.1,2.1v56.6l-1.2,2.8-42-12-3.1-2.4s0,0,0,0c0,0-.1,0-.2-.1,0,0,0,0-.1,0,0,0-.1,0-.2,0,0,0-.1,0-.2,0,0,0-.1,0-.2,0,0,0-.1,0-.2,0,0,0-.1,0-.2,0,0,0-.1,0-.2,0,0,0-.1,0-.2,0,0,0-.2,0-.2,0,0,0,0,0,0,0l-36,13.4H12.5c-1.2,0-2.1,1-2.1,2.1s1,2.1,2.1,2.1h25.6c.3,0,.5,0,.7-.1l35.3-13.1,2.5,1.9c.2.2.5.3.7.4l42.5,12.2-1.1,14.4-17.9,21.9-13.5,2.4-10.2-12.4c-.4-.5-1-.8-1.6-.8l-37.9-.3H12.5c-1.2,0-2.1,1-2.1,2.1s1,2.1,2.1,2.1h25.1l36.9.3,10.3,12.6c.5.6,1.3.9,2,.7l14.3-2.5,28.5,35.1-10.4,15.2-51.4-10.4-30.1-8.5c-.2,0-.4,0-.6,0H12.5c-1.2,0-2.1,1-2.1,2.1s1,2.1,2.1,2.1h24.4l29.9,8.5c0,0,.1,0,.2,0l51.4,10.4,5.1,25.6v20.3c0,1.2,1,2.1,2.1,2.1s2.1-1,2.1-2.1v-20.5c0-.1,0-.3,0-.4l-5.3-26.3,11.2-16.4,21.6-9.2,15,18.7s0,0,0,0c0,0,.1.1.2.2,0,0,0,0,.1,0,0,0,.1,0,.2.1,0,0,.1,0,.2.1,0,0,.1,0,.2,0,0,0,.1,0,.2,0,0,0,0,0,0,0l31.9,9.1c.2,0,.4,0,.6,0h14.9c1.2,0,2.1-1,2.1-2.1s-1-2.1-2.1-2.1h-14.6l-31-8.8-15.6-19.5c-.6-.7-1.6-1-2.5-.6l-22.1,9.5-28.2-34.8,16.5-20.1,40.1,29h0Z"/>
</svg>